<svg width="48" height="48" viewBox="0 0 48 48" fill="none" xmlns="http://www.w3.org/2000/svg">
<g clip-path="url(#clip0_117_1160)">
<path fill-rule="evenodd" clip-rule="evenodd" d="M31.4121 11.22C30.9701 11.2232 30.5286 11.1897 30.0921 11.12C30.2121 10.68 30.3921 10.16 30.5721 9.59999C31.4321 6.75999 31.8521 3.77999 29.5721 1.85999C29.4663 1.77712 29.3334 1.73667 29.1994 1.74655C29.0653 1.75643 28.9398 1.81593 28.8473 1.91343C28.7548 2.01092 28.702 2.1394 28.6992 2.27376C28.6964 2.40812 28.7437 2.53871 28.8321 2.63999C31.1921 5.19999 28.2921 8.73999 27.9921 11.42C27.6921 14.1 34.1321 13.22 36.3521 12.2L39.7321 10.78C39.872 10.7068 39.983 10.5884 40.0471 10.4441C40.1112 10.2998 40.1247 10.1381 40.0853 9.98522C40.0459 9.83232 39.956 9.69723 39.8302 9.60188C39.7043 9.50653 39.5499 9.45653 39.3921 9.45999C35.1521 11 34.9721 11.3 31.4121 11.22Z" fill="#1E1E1F"/>
<path fill-rule="evenodd" clip-rule="evenodd" d="M31.7516 0.12C28.9916 0 30.2516 0 11.9896 0C11.8173 0 11.6519 0.0684819 11.53 0.190381C11.4081 0.312279 11.3396 0.477609 11.3396 0.65C11.3396 0.822391 11.4081 0.987721 11.53 1.10962C11.6519 1.23152 11.8173 1.3 11.9896 1.3C29.0116 1.44 29.5116 1.3 31.6316 1.62C33.7516 1.94 39.1316 6.92 40.4936 9.02C40.7796 9.368 40.9536 9.794 40.9936 10.24C40.7936 13.32 39.5136 22.244 38.9936 24.404C38.4736 26.564 38.0937 28.004 37.7337 29.824C37.5937 30.544 36.6936 39.024 34.4336 40.124C31.2536 41.666 27.6936 40.644 24.4316 40.924C21.3872 41.2168 18.3301 41.3577 15.2716 41.346C4.46765 40.966 4.96765 41.126 2.04765 39.726C4.70765 36.106 6.48765 27.724 7.42765 22.824C8.48765 17.424 8.12765 11.922 8.54765 6.48C8.54765 5.54 9.48765 0.48 7.94765 1.24C7.32765 1.52 7.52765 2.44 7.52765 2.86C7.52765 5.56 6.86765 16.042 6.70765 17.782C5.91489 24.3171 4.2466 30.7158 1.74765 36.806C1.42765 37.406 1.04765 37.986 0.687648 38.546C0.399071 38.8855 0.169241 39.2708 0.00764751 39.686C-0.022645 39.997 0.0436689 40.3098 0.197558 40.5818C0.351448 40.8538 0.585433 41.0718 0.867647 41.206C2.11655 41.9118 3.46519 42.4243 4.86765 42.726C11.4096 43.372 17.9956 43.458 24.5516 42.986C27.9316 42.686 31.6917 43.766 35.3717 41.966C38.7317 40.326 39.4916 31.466 39.7316 30.206C40.0716 28.384 40.5536 26.604 40.9137 24.804C41.2737 23.004 42.4936 13.802 42.6736 10.322C42.8336 7.302 34.5316 0.34 31.7516 0.12Z" fill="#1E1E1F"/>
<path fill-rule="evenodd" clip-rule="evenodd" d="M46.1741 11.62C45.9741 14.702 44.2941 27.044 43.8541 29.124C43.4141 31.204 42.9541 32.724 42.5941 34.544C42.4541 35.264 41.5541 43.746 39.2941 44.846C36.1141 46.366 32.5541 45.366 29.2941 45.646C27.2921 45.826 22.8121 46.146 20.1301 46.066C9.8301 45.686 9.8501 46.066 7.3301 44.926C5.8701 44.346 5.5101 45.746 6.4101 46.366C7.44172 46.9745 8.5968 47.3436 9.7901 47.446C16.325 48.0922 22.9034 48.1725 29.4521 47.686C32.8321 47.406 36.5921 48.486 40.2721 46.686C43.6341 45.046 44.4141 36.186 44.6341 34.926C44.9741 33.106 45.4541 31.326 45.8141 29.526C46.1741 27.726 47.8341 15.36 47.9941 12C48.0941 10.12 46.3941 9.84001 46.1741 11.62Z" fill="#FBCD40"/>
<path fill-rule="evenodd" clip-rule="evenodd" d="M14.23 27.722C14.102 27.8531 14.0181 28.0209 13.99 28.202C14.13 29.062 19.07 25.322 19.21 25.222C19.5075 25.0246 19.7596 24.7663 19.9498 24.4641C20.1399 24.1619 20.2636 23.8228 20.3128 23.4692C20.3619 23.1156 20.3354 22.7555 20.2349 22.413C20.1345 22.0704 19.9624 21.753 19.73 21.482C18.2524 20.3476 16.6318 19.4129 14.91 18.702C13.83 19.462 16.91 21.182 17.93 22.062C19.99 24.002 16.61 24.102 14.23 27.722ZM29.992 24.004C30.1352 24.004 30.2726 23.9471 30.3738 23.8458C30.4751 23.7446 30.532 23.6072 30.532 23.464C30.532 23.3208 30.4751 23.1834 30.3738 23.0822C30.2726 22.9809 30.1352 22.924 29.992 22.924C27.649 22.2786 25.175 22.2786 22.832 22.924C22.71 22.9373 22.5983 22.9984 22.5214 23.0941C22.4445 23.1897 22.4087 23.312 22.422 23.434C22.4353 23.556 22.4964 23.6677 22.5921 23.7446C22.6877 23.8215 22.81 23.8573 22.932 23.844C25.26 24.288 27.646 24.344 29.992 24.004Z" fill="#1E1E1F"/>
</g>
<defs>
<clipPath id="clip0_117_1160">
<rect width="48" height="48" fill="white"/>
</clipPath>
</defs>
</svg>
