<svg width="48" height="48" viewBox="0 0 48 48" fill="none" xmlns="http://www.w3.org/2000/svg">
<g clip-path="url(#clip0_120_3)">
<path fill-rule="evenodd" clip-rule="evenodd" d="M23.928 0C17.5821 0.000795469 11.4964 2.52203 7.00923 7.00923C2.52203 11.4964 0.000795469 17.5821 0 23.928C0 34.494 6.9 43.449 16.293 46.68C17.469 46.827 17.907 46.092 17.907 45.504V41.394C11.304 42.864 9.837 38.166 9.837 38.166C8.808 35.376 7.194 34.641 7.194 34.641C4.992 33.174 7.338 33.174 7.338 33.174C9.687 33.321 11.01 35.67 11.01 35.67C13.212 39.339 16.587 38.31 17.91 37.725C18.054 36.111 18.789 35.085 19.377 34.497C14.091 33.909 8.514 31.854 8.514 22.605C8.514 19.965 9.393 17.907 11.01 16.146C10.86 15.705 9.981 13.212 11.304 9.981C11.304 9.981 13.359 9.393 17.907 12.477C19.815 11.889 21.873 11.742 23.928 11.742C25.983 11.742 28.038 12.036 29.946 12.477C34.497 9.396 36.552 9.981 36.552 9.981C37.872 13.212 36.99 15.705 36.843 16.293C38.4597 18.0542 39.3512 20.3613 39.339 22.752C39.339 32.001 33.759 33.909 28.479 34.497C29.358 35.229 30.093 36.696 30.093 38.898V45.504C30.093 46.092 30.531 46.824 31.707 46.68C36.466 45.0758 40.6001 42.0157 43.524 37.9325C46.448 33.8494 48.0139 28.9501 48 23.928C47.853 10.716 37.14 0 23.928 0Z" fill="#1E1E1F"/>
</g>
<defs>
<clipPath id="clip0_120_3">
<rect width="48" height="48" fill="white"/>
</clipPath>
</defs>
</svg>
