<svg width="48" height="48" viewBox="0 0 48 48" fill="none" xmlns="http://www.w3.org/2000/svg">
<g clip-path="url(#clip0_117_1140)">
<path fill-rule="evenodd" clip-rule="evenodd" d="M33.2521 21.98C33.6275 20.4769 33.7224 18.9175 33.5321 17.38C33.0921 15.23 32.2761 13.996 31.5401 13.638C30.0481 12.96 29.1321 13.876 28.3941 15.15C27.9761 8.57998 22.7001 6.50998 20.6101 12.662C17.4841 6.05198 10.8541 11.566 15.0761 23.572C13.4821 22.476 11.5921 21.58 10.1181 22.736C8.64413 23.89 9.18213 27.772 9.99813 29.802C11.2721 33.088 13.3641 35.278 14.4981 39.858C15.8721 45.352 15.1361 46.686 16.2901 46.606C16.4603 46.5763 16.6135 46.4846 16.7202 46.3488C16.8269 46.2129 16.8796 46.0424 16.8681 45.87C16.8681 43.78 16.7281 41.59 16.4281 39.478C15.6321 33.864 13.9801 32.848 12.4481 28.848C11.8262 27.524 11.5325 26.0696 11.5921 24.608C11.9101 23.352 15.2541 25.542 16.5081 26.856C17.0015 27.9133 17.5461 28.942 18.1421 29.942C18.3101 30.282 18.7281 30.41 19.0581 30.222C20.1521 29.622 18.4581 28.926 16.9281 22.696C16.1034 19.705 16.0483 16.554 16.7681 13.536C16.8681 13.1947 17.0075 12.87 17.1861 12.562C17.3661 12.254 17.1861 12.302 17.3661 12.302C17.8221 12.302 18.6201 13.638 18.8181 14.054C19.9501 16.458 20.6241 19.05 20.8101 21.7C20.8237 21.8001 20.8569 21.8965 20.9079 21.9836C20.9589 22.0708 21.0267 22.1469 21.1073 22.2077C21.188 22.2685 21.2799 22.3127 21.3777 22.3378C21.4755 22.3628 21.5773 22.3682 21.6772 22.3537C21.7772 22.3391 21.8732 22.3049 21.9599 22.253C22.0465 22.2012 22.122 22.1326 22.1819 22.0514C22.2419 21.9701 22.2852 21.8778 22.3092 21.7797C22.3333 21.6816 22.3377 21.5798 22.3221 21.48C22.3421 19.276 22.0621 17.08 21.4861 14.95C21.7794 13.5335 22.5618 12.2655 23.6961 11.368C24.9701 10.57 26.0261 14.692 26.0861 16.684C26.2261 21.462 25.1101 23.312 26.4441 23.472C26.6472 23.4935 26.8505 23.4345 27.0106 23.3078C27.1706 23.181 27.2746 22.9965 27.3001 22.794C27.5201 21.68 27.7781 20.486 28.0161 19.272C28.2961 19.112 28.1561 19.272 29.4501 16.842C30.3061 15.408 30.6041 14.852 31.0221 17.718C31.2324 19.0766 31.2324 20.4594 31.0221 21.818C30.5841 26 29.7281 26.778 30.8021 27.116C30.9981 27.1716 31.208 27.1483 31.387 27.0511C31.5661 26.9539 31.7 26.7906 31.7601 26.596C32.0381 25.86 32.3361 25.064 32.5961 24.268C32.9941 23.948 34.5861 22.696 34.9041 23.094C35.2241 23.492 34.6841 25.96 34.4861 26.658C32.7941 32.212 30.8441 31.834 30.0661 36.352C29.5301 39.518 29.9261 43.32 29.6681 45.132C29.6081 45.552 29.8881 45.948 30.3061 46.028C31.8181 46.288 31.0821 43.44 32.0781 38.066C32.9541 33.366 34.4461 34.282 36.2181 29.426C37.0341 27.136 37.9501 22.596 35.8601 21.56C35.431 21.3723 34.9568 21.3121 34.4944 21.3865C34.0319 21.461 33.6007 21.667 33.2521 21.98Z" fill="#1E1E1F"/>
<path fill-rule="evenodd" clip-rule="evenodd" d="M9.84012 9.79399C10.2361 8.89799 10.7441 8.05399 11.3521 7.28599C11.4393 7.22013 11.5122 7.13723 11.5664 7.04232C11.6205 6.94741 11.6548 6.84248 11.6672 6.73391C11.6795 6.62533 11.6697 6.51538 11.6382 6.41073C11.6067 6.30609 11.5543 6.20894 11.4841 6.12518C11.4139 6.04142 11.3275 5.97281 11.2299 5.92351C11.1324 5.87422 11.0259 5.84527 10.9168 5.83842C10.8078 5.83158 10.6984 5.84698 10.5955 5.88369C10.4926 5.92041 10.3982 5.97767 10.3181 6.05199C8.99225 6.70667 7.89937 7.75266 7.18721 9.04856C6.47506 10.3445 6.17797 11.8278 6.33612 13.298C6.32167 13.3856 6.32462 13.4752 6.3448 13.5616C6.36497 13.6481 6.40198 13.7297 6.4537 13.8019C6.50542 13.874 6.57085 13.9353 6.64624 13.9821C6.72164 14.029 6.80553 14.0605 6.89312 14.075C6.98071 14.0894 7.07029 14.0865 7.15674 14.0663C7.2432 14.0461 7.32483 14.0091 7.39698 13.9574C7.46913 13.9057 7.53039 13.8403 7.57725 13.7649C7.62412 13.6895 7.65567 13.6056 7.67012 13.518C8.32079 12.234 9.04412 10.9927 9.84012 9.79399ZM9.28212 2.72599C9.42214 2.59277 9.50741 2.41209 9.52124 2.21932C9.53507 2.02654 9.47647 1.83554 9.35689 1.68369C9.23732 1.53185 9.06539 1.43009 8.87474 1.39834C8.68409 1.36658 8.48846 1.40711 8.32612 1.51199C3.05012 4.97599 1.52012 8.32199 0.0461201 14.016C-0.00880349 14.1827 0.00284648 14.3641 0.0786335 14.5224C0.154421 14.6807 0.288475 14.8036 0.452761 14.8653C0.617046 14.9271 0.798839 14.9229 0.96012 14.8537C1.1214 14.7845 1.24968 14.6556 1.31812 14.494C3.46233 10.2491 6.13853 6.29458 9.28212 2.72599ZM42.9881 32.83C43.0246 32.6629 42.9964 32.4882 42.9092 32.341C42.822 32.1939 42.6823 32.0853 42.5182 32.0371C42.3541 31.9889 42.1778 32.0047 42.0249 32.0813C41.8719 32.1579 41.7538 32.2897 41.6941 32.45C41.0855 33.28 40.5584 34.1668 40.1201 35.098C39.7821 35.954 39.5841 37.09 39.3241 38.026C39.2342 38.205 39.2181 38.4122 39.2791 38.603C39.3401 38.7938 39.4735 38.9532 39.6506 39.0468C39.8277 39.1405 40.0345 39.161 40.2266 39.104C40.4186 39.047 40.5807 38.9171 40.6781 38.742C41.5017 38.0083 42.1403 37.0903 42.5417 36.0629C42.9431 35.0355 43.0961 33.9277 42.9881 32.83ZM47.8261 29.704C47.8261 29.5244 47.7548 29.3522 47.6278 29.2253C47.5009 29.0983 47.3287 29.027 47.1491 29.027C46.9696 29.027 46.7974 29.0983 46.6704 29.2253C46.5434 29.3522 46.4721 29.5244 46.4721 29.704C45.6004 33.5576 44.3945 37.3278 42.8681 40.972C42.7766 41.1385 42.7494 41.3328 42.7916 41.518C42.8338 41.7033 42.9425 41.8666 43.0971 41.9771C43.2517 42.0875 43.4414 42.1374 43.6303 42.1173C43.8193 42.0972 43.9942 42.0085 44.1221 41.868C45.6168 40.251 46.7265 38.3169 47.3679 36.2104C48.0093 34.1039 48.166 31.8796 47.8261 29.704Z" fill="#FBCC40"/>
</g>
<defs>
<clipPath id="clip0_117_1140">
<rect width="48" height="48" fill="white"/>
</clipPath>
</defs>
</svg>
