<svg width="140" height="26" viewBox="0 0 140 26" fill="none" xmlns="http://www.w3.org/2000/svg">
<path d="M38.558 4.378C38.4847 4.89133 38.4187 5.456 38.36 6.072C38.3013 6.688 38.2573 7.238 38.228 7.722C38.1987 8.294 38.1693 8.998 38.14 9.834C38.1107 10.6553 38.0813 11.5207 38.052 12.43C38.0227 13.3247 38.0007 14.1973 37.986 15.048C37.9713 15.884 37.964 16.6027 37.964 17.204C37.964 17.908 38.0813 18.4653 38.316 18.876C38.5653 19.272 38.8953 19.558 39.306 19.734C39.7167 19.8953 40.1713 19.976 40.67 19.976C41.5207 19.976 42.3053 19.8587 43.024 19.624C43.7427 19.3893 44.4027 19.074 45.004 18.678C45.6053 18.2673 46.1553 17.7907 46.654 17.248C47.1527 16.7053 47.6 16.126 47.996 15.51L50.416 18.48C50.0787 19.008 49.6167 19.5727 49.03 20.174C48.458 20.7607 47.7613 21.318 46.94 21.846C46.1333 22.374 45.202 22.7993 44.146 23.122C43.09 23.4593 41.924 23.628 40.648 23.628C39.372 23.628 38.2647 23.43 37.326 23.034C36.3873 22.638 35.6613 22.0293 35.148 21.208C34.6493 20.372 34.4 19.316 34.4 18.04C34.4 17.4827 34.4073 16.83 34.422 16.082C34.4367 15.3193 34.4513 14.5273 34.466 13.706C34.4953 12.87 34.5173 12.056 34.532 11.264C34.5467 10.472 34.5613 9.768 34.576 9.152C34.5907 8.52133 34.598 8.04467 34.598 7.722C34.598 7.12067 34.5687 6.534 34.51 5.962C34.466 5.37533 34.3853 4.83267 34.268 4.334L38.558 4.378ZM62.802 4.29C62.714 4.62733 62.6187 5.03067 62.516 5.5C62.428 5.95467 62.3547 6.30667 62.296 6.556C62.1933 7.04 62.0613 7.64867 61.9 8.382C61.7533 9.11533 61.5847 9.89267 61.394 10.714C61.2033 11.5353 61.0127 12.32 60.822 13.068C60.6313 13.8307 60.3967 14.6667 60.118 15.576C59.8393 16.4707 59.5387 17.3873 59.216 18.326C58.908 19.25 58.5853 20.1447 58.248 21.01C57.9253 21.8607 57.61 22.6307 57.302 23.32L53.606 22.066C53.9287 21.5233 54.2733 20.8487 54.64 20.042C55.0067 19.2353 55.366 18.37 55.718 17.446C56.07 16.5073 56.4 15.5833 56.708 14.674C57.016 13.75 57.2727 12.9067 57.478 12.144C57.6247 11.616 57.7567 11.088 57.874 10.56C58.006 10.032 58.1233 9.526 58.226 9.042C58.3287 8.54333 58.4167 8.074 58.49 7.634C58.5633 7.194 58.622 6.798 58.666 6.446C58.7247 5.97667 58.754 5.522 58.754 5.082C58.7687 4.62733 58.7613 4.26067 58.732 3.982L62.802 4.29ZM56.774 7.37C57.7273 7.37 58.688 7.326 59.656 7.238C60.6387 7.15 61.6213 7.02533 62.604 6.864C63.6013 6.688 64.5913 6.49 65.574 6.27V9.592C64.6647 9.812 63.6893 9.99533 62.648 10.142C61.6067 10.2887 60.5727 10.406 59.546 10.494C58.534 10.5673 57.6027 10.604 56.752 10.604C56.1947 10.604 55.696 10.5967 55.256 10.582C54.816 10.5527 54.4053 10.5307 54.024 10.516L53.936 7.194C54.5373 7.25267 55.0433 7.29667 55.454 7.326C55.8647 7.35533 56.3047 7.37 56.774 7.37ZM63.66 10.934C64.3053 10.8607 65.0093 10.802 65.772 10.758C66.5493 10.714 67.2973 10.692 68.016 10.692C68.632 10.692 69.2627 10.7067 69.908 10.736C70.568 10.7653 71.2353 10.8167 71.91 10.89L71.844 14.08C71.3013 14.0067 70.7 13.9407 70.04 13.882C69.38 13.8233 68.7053 13.794 68.016 13.794C67.224 13.794 66.476 13.816 65.772 13.86C65.068 13.8893 64.364 13.948 63.66 14.036V10.934ZM65.266 16.566C65.1927 16.8447 65.1267 17.1527 65.068 17.49C65.0093 17.8127 64.98 18.084 64.98 18.304C64.98 18.5387 65.024 18.7513 65.112 18.942C65.2147 19.118 65.3613 19.272 65.552 19.404C65.7573 19.536 66.0287 19.6387 66.366 19.712C66.7033 19.7707 67.114 19.8 67.598 19.8C68.346 19.8 69.1013 19.7633 69.864 19.69C70.6413 19.602 71.4553 19.4847 72.306 19.338L72.174 22.726C71.5433 22.7993 70.8467 22.8653 70.084 22.924C69.336 22.9973 68.5 23.034 67.576 23.034C65.6547 23.034 64.188 22.704 63.176 22.044C62.1787 21.3987 61.68 20.5187 61.68 19.404C61.68 18.8467 61.724 18.2893 61.812 17.732C61.9147 17.16 62.01 16.6687 62.098 16.258L65.266 16.566ZM84.384 4.708C84.3107 5.03067 84.23 5.39 84.142 5.786C84.0687 6.16733 83.9953 6.512 83.922 6.82C83.8487 7.18667 83.768 7.56067 83.68 7.942C83.592 8.30867 83.5113 8.668 83.438 9.02C83.3647 9.35733 83.2913 9.69467 83.218 10.032C83.0713 10.6627 82.8807 11.4107 82.646 12.276C82.426 13.1413 82.162 14.0727 81.854 15.07C81.5607 16.0673 81.2307 17.072 80.864 18.084C80.4973 19.0813 80.1087 20.042 79.698 20.966C79.2873 21.89 78.862 22.704 78.422 23.408L74.946 22.022C75.474 21.3033 75.958 20.5113 76.398 19.646C76.8527 18.7807 77.2633 17.8933 77.63 16.984C77.9967 16.0747 78.3193 15.18 78.598 14.3C78.8913 13.4053 79.1407 12.5767 79.346 11.814C79.5513 11.0513 79.7127 10.3913 79.83 9.834C80.0353 8.778 80.1893 7.79533 80.292 6.886C80.4093 5.962 80.4533 5.09667 80.424 4.29L84.384 4.708ZM91.974 6.732C92.3113 7.23067 92.6633 7.83933 93.03 8.558C93.4113 9.262 93.778 10.01 94.13 10.802C94.482 11.594 94.7973 12.3567 95.076 13.09C95.3693 13.8233 95.5967 14.454 95.758 14.982L92.348 16.544C92.216 15.8987 92.0253 15.1947 91.776 14.432C91.5413 13.6693 91.2627 12.8993 90.94 12.122C90.632 11.33 90.2873 10.582 89.906 9.878C89.5393 9.174 89.158 8.57267 88.762 8.074L91.974 6.732ZM74.902 9.042C75.3273 9.07133 75.7527 9.086 76.178 9.086C76.6033 9.07133 77.036 9.05667 77.476 9.042C77.8427 9.02733 78.2827 9.00533 78.796 8.976C79.3093 8.932 79.852 8.888 80.424 8.844C80.996 8.8 81.568 8.756 82.14 8.712C82.7267 8.65333 83.2693 8.60933 83.768 8.58C84.2667 8.55067 84.6847 8.536 85.022 8.536C85.8727 8.536 86.606 8.68267 87.222 8.976C87.8527 9.25467 88.344 9.724 88.696 10.384C89.048 11.044 89.224 11.924 89.224 13.024C89.224 13.8747 89.1873 14.8133 89.114 15.84C89.0407 16.852 88.916 17.8273 88.74 18.766C88.564 19.7047 88.3147 20.4967 87.992 21.142C87.6253 21.934 87.1193 22.484 86.474 22.792C85.8287 23.1147 85.0587 23.276 84.164 23.276C83.7387 23.276 83.284 23.2467 82.8 23.188C82.316 23.1293 81.876 23.056 81.48 22.968L80.908 19.47C81.1867 19.5433 81.4947 19.6167 81.832 19.69C82.184 19.7633 82.5213 19.822 82.844 19.866C83.1667 19.91 83.416 19.932 83.592 19.932C83.944 19.932 84.2447 19.866 84.494 19.734C84.7433 19.602 84.9413 19.3893 85.088 19.096C85.2787 18.7293 85.4327 18.2307 85.55 17.6C85.6673 16.9547 85.7553 16.258 85.814 15.51C85.8727 14.762 85.902 14.0507 85.902 13.376C85.902 12.8333 85.8287 12.4373 85.682 12.188C85.5353 11.9387 85.308 11.7773 85 11.704C84.7067 11.616 84.3327 11.572 83.878 11.572C83.57 11.572 83.1447 11.6013 82.602 11.66C82.0593 11.704 81.48 11.7627 80.864 11.836C80.248 11.8947 79.676 11.9607 79.148 12.034C78.62 12.1073 78.2093 12.166 77.916 12.21C77.564 12.2687 77.1167 12.3347 76.574 12.408C76.0313 12.4813 75.5767 12.5547 75.21 12.628L74.902 9.042ZM91.204 3.762C91.3947 4.026 91.5927 4.34867 91.798 4.73C92.018 5.09667 92.2233 5.46333 92.414 5.83C92.6193 6.19667 92.788 6.512 92.92 6.776L90.83 7.656C90.6833 7.348 90.5147 7.018 90.324 6.666C90.1333 6.29933 89.9353 5.93267 89.73 5.566C89.5393 5.19933 89.3413 4.87667 89.136 4.598L91.204 3.762ZM93.91 2.706C94.1007 2.98467 94.306 3.31467 94.526 3.696C94.746 4.06267 94.9587 4.42933 95.164 4.796C95.3693 5.148 95.5307 5.44867 95.648 5.698L93.58 6.578C93.36 6.12333 93.0887 5.61 92.766 5.038C92.4433 4.45133 92.1353 3.95267 91.842 3.542L93.91 2.706ZM99.432 5.808C101.089 5.99867 102.578 6.116 103.898 6.16C105.233 6.18933 106.494 6.16733 107.682 6.094C108.738 6.02067 109.735 5.896 110.674 5.72C111.627 5.544 112.588 5.30933 113.556 5.016L113.974 8.052C113.138 8.28667 112.243 8.48467 111.29 8.646C110.337 8.80733 109.361 8.92467 108.364 8.998C107.22 9.07133 105.907 9.108 104.426 9.108C102.945 9.09333 101.339 9.00533 99.608 8.844L99.432 5.808ZM99.058 10.472C100.422 10.5893 101.713 10.67 102.93 10.714C104.147 10.758 105.284 10.7653 106.34 10.736C107.411 10.692 108.393 10.6333 109.288 10.56C110.549 10.4573 111.598 10.3107 112.434 10.12C113.285 9.92933 114.047 9.73867 114.722 9.548L115.25 12.694C114.561 12.8553 113.82 13.0093 113.028 13.156C112.236 13.288 111.4 13.4053 110.52 13.508C109.581 13.596 108.489 13.662 107.242 13.706C106.01 13.75 104.705 13.7647 103.326 13.75C101.962 13.7207 100.598 13.6693 99.234 13.596L99.058 10.472ZM106.296 6.93C106.179 6.47533 106.047 6.028 105.9 5.588C105.753 5.13333 105.592 4.65667 105.416 4.158L108.98 3.784C109.083 4.532 109.2 5.236 109.332 5.896C109.464 6.556 109.611 7.18667 109.772 7.788C109.948 8.38933 110.131 8.99067 110.322 9.592C110.483 10.0613 110.703 10.6187 110.982 11.264C111.275 11.8947 111.591 12.5253 111.928 13.156C112.265 13.7867 112.588 14.344 112.896 14.828C113.057 15.0627 113.219 15.2827 113.38 15.488C113.556 15.6787 113.754 15.8767 113.974 16.082L112.412 18.48C112.001 18.4067 111.473 18.326 110.828 18.238C110.183 18.15 109.515 18.0693 108.826 17.996C108.137 17.908 107.513 17.8347 106.956 17.776L107.22 15.246C107.601 15.2753 108.027 15.312 108.496 15.356C108.98 15.3853 109.376 15.4147 109.684 15.444C109.112 14.4467 108.628 13.5007 108.232 12.606C107.851 11.7113 107.535 10.89 107.286 10.142C107.11 9.614 106.963 9.18133 106.846 8.844C106.743 8.492 106.648 8.17667 106.56 7.898C106.487 7.60467 106.399 7.282 106.296 6.93ZM103.854 15.796C103.59 16.148 103.355 16.522 103.15 16.918C102.945 17.2993 102.842 17.7247 102.842 18.194C102.842 18.9567 103.201 19.492 103.92 19.8C104.639 20.0933 105.651 20.24 106.956 20.24C107.997 20.24 109.009 20.196 109.992 20.108C110.975 20.02 111.855 19.9027 112.632 19.756L112.434 23.144C111.671 23.2613 110.784 23.3567 109.772 23.43C108.775 23.518 107.836 23.562 106.956 23.562C105.475 23.562 104.184 23.4007 103.084 23.078C101.984 22.77 101.126 22.2787 100.51 21.604C99.894 20.9293 99.5713 20.042 99.542 18.942C99.5273 18.1793 99.6227 17.4973 99.828 16.896C100.048 16.2947 100.29 15.7227 100.554 15.18L103.854 15.796ZM121.74 3.19H124.402V24.09H121.74V3.19ZM118.88 7.172H126.074V9.966H121.168V19.492H118.88V7.172ZM124.996 7.172H127.218V16.434C127.218 16.8887 127.181 17.314 127.108 17.71C127.035 18.106 126.873 18.4213 126.624 18.656C126.36 18.8907 126.089 19.0447 125.81 19.118C125.546 19.1767 125.223 19.206 124.842 19.206C124.827 18.8247 124.754 18.3773 124.622 17.864C124.49 17.3507 124.336 16.918 124.16 16.566C124.307 16.566 124.439 16.566 124.556 16.566C124.688 16.566 124.783 16.566 124.842 16.566C124.945 16.566 124.996 16.4927 124.996 16.346V7.172ZM129.572 3.916H138.504V6.468H129.572V3.916ZM129.594 7.062H137.822V9.372H129.594V7.062ZM129.594 9.988H137.822V12.298H129.594V9.988ZM127.416 12.936H139.208V15.532H127.416V12.936ZM126.536 21.12C127.504 21.0027 128.655 20.8487 129.99 20.658C131.325 20.4673 132.674 20.2693 134.038 20.064L134.236 22.682C133.019 22.902 131.794 23.1147 130.562 23.32C129.33 23.54 128.201 23.738 127.174 23.914L126.536 21.12ZM134.61 13.86C134.845 15.0187 135.167 16.0893 135.578 17.072C135.989 18.0547 136.531 18.9127 137.206 19.646C137.895 20.3647 138.753 20.9293 139.78 21.34C139.56 21.5453 139.318 21.8093 139.054 22.132C138.79 22.4547 138.541 22.792 138.306 23.144C138.071 23.496 137.881 23.8187 137.734 24.112C136.575 23.5253 135.622 22.7553 134.874 21.802C134.141 20.8487 133.554 19.734 133.114 18.458C132.674 17.182 132.315 15.7667 132.036 14.212L134.61 13.86ZM137.536 15.51L139.604 17.424C139.032 17.908 138.416 18.392 137.756 18.876C137.096 19.3453 136.509 19.7413 135.996 20.064L134.258 18.304C134.595 18.084 134.962 17.82 135.358 17.512C135.754 17.1893 136.143 16.852 136.524 16.5C136.92 16.148 137.257 15.818 137.536 15.51ZM128.428 3.916H131.376V14.212H128.428V3.916ZM128.384 14.322H131.332V21.472L128.384 21.846V14.322Z" fill="#1E1E1F"/>
<path d="M0 7C0 3.68629 2.68629 1 6 1H18C21.3137 1 24 3.68629 24 7V25H6C2.68629 25 0 22.3137 0 19V7Z" fill="#FBCC40"/>
</svg>
