<svg width="48" height="48" viewBox="0 0 48 48" fill="none" xmlns="http://www.w3.org/2000/svg">
<g clip-path="url(#clip0_117_1166)">
<path fill-rule="evenodd" clip-rule="evenodd" d="M44.9422 22.196C44.4622 21.436 43.5022 21.416 42.6022 21.536C38.8783 22.1331 35.404 23.7866 32.5921 26.3C30.71 27.5951 29.1878 29.3474 28.1687 31.3923C27.1496 33.4371 26.667 35.7074 26.7662 37.99C26.7355 39.4884 27.0005 40.9782 27.5462 42.374C26.2444 43.9599 25.0605 45.6391 24.0042 47.398C24.0042 47.858 24.5842 48.238 25.2442 47.818C27.5888 45.3821 29.7943 42.8161 31.8502 40.132C33.6202 37.5076 35.244 34.7875 36.7142 31.984C36.7582 31.8861 36.7751 31.7781 36.7632 31.6714C36.7513 31.5646 36.7109 31.4631 36.6464 31.3773C36.5818 31.2914 36.4954 31.2245 36.3961 31.1835C36.2969 31.1425 36.1885 31.1288 36.0822 31.144C35.9394 31.1643 35.8088 31.2353 35.7142 31.344C27.9662 41.572 29.0682 40.152 28.2082 41.352C28.1873 41.019 28.1873 40.685 28.2082 40.352C27.8556 38.4578 27.9643 36.5066 28.5251 34.6633C29.086 32.82 30.0824 31.1389 31.4302 29.762C35.4342 25.758 41.2582 23.576 42.9002 23.756C42.9002 30.062 42.9001 29.462 42.7601 30.462L39.6782 32.464C39.3182 32.664 38.4182 32.904 38.1582 33.664C37.7162 34.986 39.3382 35.108 40.3981 36.168C37.8561 37.648 37.5362 37.168 36.7542 37.728C36.6196 37.8012 36.5009 37.9003 36.4048 38.0196C36.3088 38.1389 36.2373 38.2761 36.1945 38.4232C36.1518 38.5702 36.1385 38.7243 36.1556 38.8765C36.1727 39.0288 36.2198 39.1761 36.2941 39.31C36.9288 39.922 37.5962 40.496 38.2962 41.032C32.9322 45.536 31.4302 43.976 30.5302 44.576C30.41 44.6578 30.3183 44.7749 30.2675 44.9111C30.2168 45.0473 30.2096 45.1959 30.2469 45.3364C30.2842 45.4769 30.3642 45.6023 30.4758 45.6954C30.5875 45.7884 30.7253 45.8446 30.8702 45.856C34.8742 46.496 40.0781 41.854 40.2582 41.392C40.5781 40.552 39.5982 39.892 38.6782 39.052C40.0063 38.5347 41.3026 37.939 42.5602 37.268C42.723 37.1877 42.8635 37.0685 42.9693 36.921C43.075 36.7735 43.1428 36.6021 43.1665 36.4221C43.1902 36.2422 43.1692 36.0591 43.1053 35.8892C43.0414 35.7193 42.9366 35.5677 42.8001 35.448L41.1602 33.986C43.4202 32.746 44.5622 32.146 44.9622 31.044C45.2022 30.444 45.5822 23.176 44.9422 22.196Z" fill="#1E1E1F"/>
<path fill-rule="evenodd" clip-rule="evenodd" d="M22.122 37.99C7.18805 38.21 13.5341 38.23 7.00805 37.45C6.02805 37.35 5.58805 36.61 5.30805 35.748C4.78805 34.046 4.92805 33.746 5.16805 17.07C4.8817 13.7297 5.02284 10.3666 5.58805 7.06201C6.08805 5.06001 5.58805 4.30001 8.42805 4.34001C8.42805 5.02001 8.16805 7.60201 8.22805 8.04201C8.40805 9.56401 9.91205 9.34201 10.4921 9.50201C13.5341 10.224 14.6761 7.94201 14.4961 4.76001C15.4481 5.04601 16.4641 5.04601 17.416 4.76001C17.416 4.98001 17.216 7.52201 17.276 7.88201C17.456 9.40201 18.9401 9.16201 19.5401 9.32201C22.5421 10.044 23.684 7.84201 23.5441 4.72001C24.904 5.12001 25.004 5.06001 27.006 4.60001C27.006 4.80001 26.846 7.36201 26.886 7.60201C26.9027 7.8954 27.0125 8.17582 27.1996 8.40245C27.3866 8.62908 27.6411 8.79008 27.926 8.86201C31.13 9.72401 33.012 8.86201 33.112 5.40201C33.784 5.41801 34.4507 5.47801 35.112 5.58201C35.594 5.58201 35.994 5.74201 36.034 6.14201L36.774 20.014C36.7509 20.1446 36.7715 20.2791 36.8326 20.3968C36.8937 20.5144 36.992 20.6086 37.1122 20.6647C37.2323 20.7207 37.3676 20.7356 37.497 20.7069C37.6265 20.6782 37.7428 20.6076 37.828 20.506C37.8841 20.4384 37.9246 20.3593 37.9467 20.2742C37.9688 20.1892 37.972 20.1004 37.956 20.014C38.836 15.31 38.836 10.484 37.956 5.78001C37.476 3.78001 35.314 3.78001 33.192 3.96001C33.0013 2.83587 32.637 1.74821 32.112 0.736013C31.8272 0.478762 31.4934 0.281492 31.1306 0.155957C30.7679 0.0304228 30.3836 -0.0208068 30.0006 0.00532117C29.6177 0.0314491 29.2439 0.1344 28.9016 0.308039C28.5592 0.481678 28.2554 0.722452 28.008 1.01601C27.6186 1.62749 27.3473 2.30655 27.208 3.01801C25.8746 2.69975 24.4752 2.8046 23.2041 3.31801C23.1393 2.51117 22.9222 1.72392 22.564 0.998013C22.2746 0.728291 21.9327 0.521099 21.5596 0.389358C21.1866 0.257617 20.7904 0.204153 20.3957 0.232301C20.0011 0.260449 19.6165 0.369605 19.2659 0.552961C18.9153 0.736317 18.6063 0.98994 18.358 1.29801C18.0327 1.82225 17.7961 2.39665 17.6581 2.99801C16.5091 2.77103 15.3204 2.85386 14.2141 3.23801C14.1278 2.49268 13.9112 1.76832 13.5741 1.09801C13.2906 0.758658 12.9154 0.508186 12.4933 0.376589C12.0712 0.244992 11.6201 0.237849 11.1941 0.356014C9.59005 0.596013 8.99005 1.69601 8.63005 3.25801C7.56292 3.05576 6.45865 3.23261 5.50805 3.75801C4.48805 4.43801 4.42805 5.88001 4.14605 6.80201C3.3678 10.1872 3.02503 13.658 3.12605 17.13C2.74605 26.52 2.84605 23.516 2.70605 30.522C2.70605 34.326 2.70605 39.19 6.82805 39.49C13.5141 39.99 7.06805 40.23 22.142 39.39C22.234 39.3887 22.3247 39.3693 22.4092 39.3329C22.4936 39.2965 22.57 39.2438 22.6341 39.1779C22.6982 39.112 22.7486 39.0341 22.7826 38.9487C22.8166 38.8632 22.8334 38.7719 22.8321 38.68C22.8307 38.5881 22.8113 38.4973 22.7749 38.4129C22.7385 38.3285 22.6859 38.252 22.62 38.188C22.554 38.1239 22.4761 38.0734 22.3907 38.0395C22.3053 38.0055 22.214 37.9887 22.122 37.99ZM28.888 3.47801C29.048 0.496013 30.89 1.23801 31.01 1.81801C31.244 3.29201 31.21 4.79801 30.91 6.26001C30.59 7.36201 30.03 7.10001 28.91 7.08001C28.9634 5.88001 28.9567 4.68001 28.89 3.48001M19.68 2.06001C20.08 1.26001 21.24 1.80001 21.4 1.74001C21.7132 3.32604 21.7132 4.95799 21.4 6.54401C21.22 7.14401 20.8601 7.56401 20.1 7.34401H19.38C19.38 7.10401 19.5 6.84401 19.5 6.74401C19.229 5.18746 19.2903 3.59117 19.68 2.06001ZM10.6921 2.16001C11.0921 1.36001 12.2521 1.90001 12.4121 1.84001C12.7141 3.42001 12.7141 5.04201 12.4121 6.62401C12.2321 7.22401 11.8721 7.66401 11.1121 7.42401H10.3921C10.3921 7.18401 10.5121 6.92401 10.5121 6.82401C10.2438 5.27396 10.3052 3.68479 10.6921 2.16001Z" fill="#1E1E1F"/>
<path fill-rule="evenodd" clip-rule="evenodd" d="M30.2701 16.49C30.3498 16.4277 30.4163 16.35 30.4656 16.2616C30.5149 16.1732 30.5461 16.0759 30.5572 15.9753C30.5684 15.8747 30.5594 15.7728 30.5307 15.6758C30.502 15.5787 30.4542 15.4883 30.39 15.41C30.01 14.79 19.038 13.968 13.714 14.188C7.70805 14.588 8.57005 15.588 9.53005 15.808C11.612 16.45 30.2301 16.53 30.2701 16.49ZM24.004 22.696C23.384 22.536 18.518 22.276 17.598 22.276C16.678 22.276 9.91205 22.476 9.59005 23.236C9.57195 23.3199 9.57336 23.4068 9.59416 23.49C9.61497 23.5732 9.65462 23.6505 9.71005 23.716C10.924 24.156 12.204 24.386 13.494 24.396C16.998 24.642 20.516 24.556 24.004 24.136C24.824 24.136 25.084 22.956 24.004 22.696ZM10.152 31.984C13.1663 32.6521 16.2843 32.7066 19.32 32.144C19.4471 32.0166 19.5184 31.8439 19.5184 31.664C19.5184 31.4841 19.4471 31.3115 19.32 31.184C17.4471 30.5736 15.4832 30.2895 13.514 30.344C8.93005 30.624 7.99005 31.624 10.152 31.984Z" fill="#FBCD40"/>
</g>
<defs>
<clipPath id="clip0_117_1166">
<rect width="48" height="48" fill="white"/>
</clipPath>
</defs>
</svg>
