<svg width="48" height="48" viewBox="0 0 48 48" fill="none" xmlns="http://www.w3.org/2000/svg">
<g clip-path="url(#clip0_117_1148)">
<path fill-rule="evenodd" clip-rule="evenodd" d="M23.4899 22.044C23.6478 22.0071 23.7874 21.915 23.8834 21.7843C23.9794 21.6536 24.0255 21.4929 24.0134 21.3312C24.0014 21.1695 23.9319 21.0174 23.8176 20.9024C23.7032 20.7874 23.5516 20.717 23.3899 20.704C21.7867 20.778 20.2056 20.3073 18.9038 19.3687C17.602 18.43 16.6561 17.0785 16.2199 15.534C15.6404 13.5786 15.5989 11.503 16.0999 9.526C16.2053 9.61934 16.3186 9.69934 16.4399 9.766C18.488 10.6051 20.7308 10.8513 22.9122 10.4764C25.0935 10.1016 27.1255 9.12074 28.7759 7.646C29.1439 8.43267 29.5973 9.166 30.1359 9.846C31.6999 11.348 34.3039 11.63 34.9039 12.55C34.9584 12.6754 35.0585 12.7755 35.1839 12.83C34.7898 14.9658 33.7319 16.9228 32.1609 18.4224C30.5898 19.9219 28.5857 20.8877 26.4339 21.182C26.3028 21.2324 26.1935 21.3273 26.1251 21.4501C26.0567 21.5729 26.0336 21.7158 26.0598 21.8538C26.086 21.9919 26.1598 22.1164 26.2684 22.2056C26.3769 22.2948 26.5134 22.3431 26.6539 22.342C42.0339 19.68 39.3099 -0.665994 26.5339 0.0140063C8.42992 1.39601 11.7339 23.004 23.4899 22.042M35.3039 10.668C33.4661 9.27349 31.5467 7.98988 29.5559 6.824C30.4466 5.88534 31.2679 4.89067 32.0199 3.84001C33.0133 4.67306 33.8193 5.70664 34.3853 6.87301C34.9512 8.03938 35.2643 9.31219 35.3039 10.608V10.668ZM30.8399 3.10001C28.9577 5.2751 26.5327 6.91266 23.8119 7.846C22.0099 8.406 18.0039 9.108 16.7019 8.226C16.7281 8.14132 16.7281 8.05069 16.7019 7.966C19.1039 2.80001 26.9739 1.10001 30.8399 3.10001Z" fill="#1E1E1F"/>
<path fill-rule="evenodd" clip-rule="evenodd" d="M22.208 14.394C22.2694 14.4563 22.3426 14.5058 22.4233 14.5395C22.504 14.5733 22.5906 14.5907 22.678 14.5907C22.7655 14.5907 22.8521 14.5733 22.9328 14.5395C23.0134 14.5058 23.0866 14.4563 23.148 14.394C23.648 13.914 22.988 11.35 20.766 11.552C18.202 11.832 18.202 14.636 19.344 14.474C20.484 14.314 20.564 12.252 22.208 14.394ZM31.32 14.676C31.82 14.196 30.64 11.03 28.636 11.31C27.476 11.63 26.152 13.574 26.894 14.014C26.969 14.0946 27.0642 14.1537 27.1696 14.1854C27.2751 14.217 27.387 14.22 27.494 14.194C27.6372 14.1791 27.7698 14.1115 27.8659 14.0043C27.962 13.8971 28.0148 13.758 28.014 13.614C29.556 12.434 30.198 15.718 31.32 14.676ZM27.574 18.04C27.6659 17.9061 27.7068 17.7437 27.6893 17.5822C27.6718 17.4207 27.5971 17.2708 27.4786 17.1597C27.3602 17.0485 27.2059 16.9834 27.0437 16.9761C26.8814 16.9688 26.7219 17.0199 26.594 17.12C26.194 17.4 25.752 17.34 24.33 17.34C23.9156 17.4489 23.4759 17.4063 23.09 17.22C23.041 17.1582 22.98 17.1068 22.9107 17.069C22.8414 17.0312 22.7653 17.0076 22.6867 16.9997C22.6082 16.9919 22.5289 16.9998 22.4534 17.0232C22.378 17.0465 22.3081 17.0847 22.2477 17.1356C22.1874 17.1865 22.1378 17.2489 22.102 17.3193C22.0662 17.3896 22.0449 17.4664 22.0394 17.5452C22.0338 17.6239 22.0441 17.703 22.0696 17.7777C22.0951 17.8524 22.1354 17.9212 22.188 17.98C22.4545 18.4572 22.8422 18.8557 23.312 19.135C23.7819 19.4143 24.3171 19.5646 24.8636 19.5706C25.4102 19.5767 25.9486 19.4384 26.4246 19.1696C26.9005 18.9009 27.297 18.5112 27.574 18.04Z" fill="#020202"/>
<path fill-rule="evenodd" clip-rule="evenodd" d="M39.39 42.91C35.5805 43.3403 31.8319 44.2004 28.216 45.474C27.152 45.8247 26.1106 46.2313 25.092 46.694C25.212 46.334 26.532 29.114 25.612 28.212C25.4199 27.982 25.1488 27.8322 24.852 27.792C23.43 27.652 21.868 24.388 17.102 22.826C14.9705 22.2235 12.7669 21.914 10.552 21.906C9.81195 21.906 8.33195 21.764 7.96995 22.466C7.93458 22.5626 7.92303 22.6664 7.93628 22.7684C7.94953 22.8705 7.98719 22.9678 8.04607 23.0522C8.10495 23.1366 8.18331 23.2055 8.27451 23.2532C8.3657 23.3009 8.46705 23.3258 8.56995 23.326H10.372C15.72 24.626 18.924 25.088 23.37 28.732C24.73 30.014 23.21 34.02 23.77 45.834C22.3073 45.2353 20.8053 44.7687 19.264 44.434C15.52 43.07 12.316 43.492 8.76995 43.07H6.22795C5.34795 43.07 5.10595 43.07 5.10595 41.67C5.10595 39.666 5.72595 38.586 4.78595 38.506C4.63108 38.4997 4.47948 38.5517 4.36102 38.6516C4.24255 38.7516 4.16583 38.8923 4.14595 39.046C3.90595 41.188 2.50195 43.872 5.46595 44.794C6.44729 44.9767 7.43529 45.1033 8.42995 45.174C11.934 45.854 15.48 45.374 18.704 46.214C20.5375 47.125 22.5289 47.6756 24.57 47.836C24.57 48.056 25.29 48.656 39.33 44.532C39.756 44.328 40.15 44.058 40.49 43.732C40.5397 43.5876 40.5423 43.4311 40.4973 43.2852C40.4523 43.1392 40.3621 43.0113 40.2396 42.92C40.1171 42.8287 39.9688 42.7788 39.8161 42.7773C39.6634 42.7759 39.5141 42.821 39.39 42.91Z" fill="#FBCC40"/>
<path fill-rule="evenodd" clip-rule="evenodd" d="M12.174 30.816C11.994 30.056 11.734 28.672 10.674 28.052C8.56482 27.2946 6.24787 27.3589 4.18396 28.232C3.51698 28.8202 2.9945 29.5541 2.65705 30.3768C2.3196 31.1996 2.17626 32.089 2.23816 32.9761C2.30006 33.8632 2.56553 34.7241 3.01397 35.492C3.46241 36.2599 4.08176 36.9142 4.82396 37.404C5.52629 38.0163 6.38132 38.427 7.29827 38.5925C8.21522 38.758 9.15988 38.6721 10.032 38.344C12.676 36.924 13.016 33.738 12.174 30.816ZM8.92996 36.42C8.72809 36.5081 8.51021 36.5536 8.28996 36.5536C8.0697 36.5536 7.85182 36.5081 7.64996 36.42C3.32396 35.26 3.06396 31.274 5.12596 29.192C6.50596 29.992 8.68996 28.912 9.69196 29.592C9.99196 29.832 11.45 35.018 8.92996 36.42Z" fill="#1E1E1F"/>
<path fill-rule="evenodd" clip-rule="evenodd" d="M5.98587 26.33C6.26587 24.648 6.52587 22.324 5.40587 22.324C5.22587 22.324 4.98587 22.324 4.86587 22.504C4.48286 23.7095 4.28067 24.9652 4.26587 26.23C4.36587 27.63 5.86587 27.37 5.98587 26.33ZM40.8319 24.046C41.0319 24.928 41.1719 25.608 41.2919 26.17C41.7919 27.53 43.1139 27.15 42.8719 25.61C42.5951 24.5726 42.4078 23.5134 42.3119 22.444C42.272 21.835 42.0411 21.2541 41.6519 20.784C41.2956 20.4836 40.8368 20.333 40.3719 20.364C38.0425 20.6573 35.7605 21.2488 33.5819 22.124C32.0199 22.744 25.5719 25.95 25.4319 27.11C25.4231 27.2683 25.4716 27.4244 25.5685 27.5499C25.6653 27.6753 25.8041 27.7617 25.9595 27.7933C26.1148 27.8249 26.2763 27.7994 26.4145 27.7217C26.5526 27.644 26.6582 27.5191 26.7119 27.37C30.4353 25.4998 34.3412 24.0174 38.3679 22.946C39.8279 22.546 40.1699 21.284 40.8319 24.046ZM41.5119 39.606C41.4562 41.0203 41.6318 42.4343 42.0319 43.792C42.2119 44.032 42.9319 44.192 43.2519 43.252C43.5659 42.152 43.6999 41.01 43.6539 39.866C43.569 39.664 43.4323 39.488 43.2574 39.3559C43.0826 39.2238 42.8759 39.1403 42.6584 39.1139C42.4408 39.0875 42.2202 39.1191 42.0188 39.2055C41.8175 39.292 41.6426 39.4301 41.5119 39.606Z" fill="#FBCC40"/>
<path fill-rule="evenodd" clip-rule="evenodd" d="M45.736 30.976C45.5753 29.749 44.9705 28.6233 44.036 27.812C43.816 27.612 43.656 27.652 43.234 27.632C42.9419 27.6173 42.6497 27.6611 42.3746 27.7606C42.0995 27.8602 41.8471 28.0137 41.632 28.212C40.752 30.214 38.428 28.892 36.806 30.214C36.3951 30.6344 36.0874 31.1443 35.9069 31.7037C35.7264 32.2631 35.6782 32.8568 35.766 33.438C36.1566 35.1478 37.0983 36.6818 38.446 37.804C38.8574 38.2162 39.3723 38.5099 39.9365 38.6542C40.5006 38.7985 41.0933 38.7881 41.652 38.624C44.556 37.764 46.038 33.478 45.736 30.976ZM40.03 36.062C39.91 35.902 38.468 33.478 38.028 32.618C38.028 31.938 38.028 31.598 38.448 31.438C39.608 30.896 42.252 30.936 43.114 28.572C43.5312 28.9752 43.8522 29.4672 44.053 30.0116C44.2538 30.5559 44.3294 31.1385 44.274 31.716C44.1025 32.8967 43.6722 34.0249 43.014 35.02C42.294 36.062 40.87 37.004 40.03 36.062Z" fill="#1E1E1F"/>
</g>
<defs>
<clipPath id="clip0_117_1148">
<rect width="48" height="48" fill="white"/>
</clipPath>
</defs>
</svg>
