<svg width="48" height="48" viewBox="0 0 48 48" fill="none" xmlns="http://www.w3.org/2000/svg">
<g clip-path="url(#clip0_117_1144)">
<path fill-rule="evenodd" clip-rule="evenodd" d="M47.912 6.46601C47.6534 5.4926 47.1665 4.59483 46.4917 3.84706C45.817 3.09929 44.9738 2.52303 44.032 2.16601C42.2538 1.38979 40.25 1.30422 38.412 1.92601C37.6592 2.23865 36.9781 2.70139 36.41 3.28601C35.5742 4.10914 34.8964 5.07849 34.41 6.14601C34.1349 6.67627 33.9331 7.24144 33.81 7.82601C33.7654 7.99301 33.7861 8.17074 33.8678 8.32306C33.9495 8.47538 34.0862 8.59086 34.25 8.64601C34.3248 8.67462 34.4045 8.68798 34.4846 8.6853C34.5646 8.68263 34.6432 8.66396 34.7159 8.63042C34.7886 8.59687 34.8538 8.54911 34.9078 8.48996C34.9617 8.43082 35.0033 8.36147 35.03 8.28601L35.65 6.82601C36.0546 6.09281 36.5594 5.41965 37.15 4.82601C37.6876 4.32325 38.3398 3.95937 39.05 3.76601C40.4034 3.47253 41.8167 3.65626 43.05 4.28601C43.6903 4.48229 44.2773 4.82212 44.7664 5.27962C45.2554 5.73713 45.6336 6.30022 45.872 6.92601C46.172 7.95401 46.228 9.03601 46.032 10.086C45.8251 11.1489 45.4753 12.1789 44.992 13.148L44.732 13.008C42.612 11.928 37.572 9.38801 36.03 8.52801C35.8679 8.44222 35.6786 8.42349 35.5028 8.47585C35.327 8.52822 35.1788 8.64749 35.09 8.80801C35.0042 8.97013 34.9855 9.15946 35.0379 9.33525C35.0902 9.51104 35.2095 9.65925 35.37 9.74801L44.25 14.588C44.07 14.988 43.77 15.588 43.39 16.328C40.95 21.17 35.11 32.054 33.03 35.674C32.187 34.8351 31.2774 34.0659 30.31 33.374C29.83 33.054 29.31 32.734 28.81 32.454C28.2864 32.1773 27.7445 31.9368 27.188 31.734C26.1634 31.3554 25.1054 31.0742 24.028 30.894C24.088 30.646 24.168 30.406 24.268 30.174C26.108 25.912 30.908 16.51 33.108 12.168C33.608 11.208 33.968 10.508 34.128 10.168C34.528 9.40801 33.308 9.20801 33.288 9.22801C32.7842 9.96323 32.3426 10.7393 31.968 11.548C29.548 15.928 24.348 25.132 22.368 29.332C21.908 30.132 21.608 31.016 21.488 31.932C21.628 32.772 22.508 38.714 23.088 41.096C23.192 41.732 23.492 42.318 23.948 42.776C24.31 42.984 24.728 43.082 25.148 43.056C26.071 42.9416 26.9694 42.6781 27.808 42.276C30.0359 41.244 32.1038 39.8969 33.948 38.276C34.448 37.716 40.47 26.132 43.772 19.33C44.752 17.33 45.492 15.75 45.772 14.99C46.5014 13.4793 47.1214 11.9253 47.632 10.328C47.9921 9.07469 48.0875 7.75817 47.912 6.46601ZM25.648 40.696H25.348C25.348 40.696 23.988 34.094 23.668 32.314C24.608 32.774 25.668 33.394 26.688 33.994C27.308 34.354 27.968 34.674 28.688 35.014C29.408 35.354 30.028 35.634 30.688 35.974L32.248 36.914C31.116 37.852 29.888 38.67 28.588 39.354C27.658 39.904 26.672 40.356 25.648 40.696Z" fill="#1E1E1F"/>
<path fill-rule="evenodd" clip-rule="evenodd" d="M24.028 45.036C22.8028 44.7738 21.5941 44.4399 20.408 44.036C19.6621 43.7842 18.9443 43.4558 18.266 43.056C17.7015 42.7324 17.2853 42.2015 17.106 41.576C17.0515 40.6924 17.1809 39.8071 17.486 38.976C17.8937 37.7483 17.8937 36.4217 17.486 35.194C17.1471 34.4932 16.5937 33.9187 15.906 33.554C15.0627 33.0825 14.1286 32.7962 13.166 32.714C11.4415 32.6843 9.71844 32.8317 8.02401 33.154C5.50401 33.666 3.01801 34.334 0.58201 35.154C0.428302 35.1623 0.283142 35.2274 0.174601 35.3365C0.0660593 35.4457 0.00184814 35.5912 -0.00561554 35.7449C-0.0130792 35.8987 0.0367348 36.0497 0.134193 36.1689C0.231652 36.288 0.369831 36.3668 0.52201 36.39C0.60201 36.3993 0.68201 36.394 0.76201 36.374C2.76201 35.954 4.76201 35.534 6.94201 35.254C8.92947 34.9654 10.944 34.9117 12.944 35.094C13.44 35.148 13.92 35.29 14.364 35.514C14.724 35.694 15.104 35.874 15.224 36.174C15.4697 36.9551 15.4697 37.7929 15.224 38.574C14.8861 39.7375 14.8312 40.965 15.064 42.154C15.2312 42.7082 15.5112 43.2219 15.8863 43.6628C16.2615 44.1037 16.7237 44.4622 17.244 44.716C18.084 45.1373 18.958 45.464 19.866 45.696C21.146 46.032 22.4393 46.292 23.746 46.476C23.926 46.5053 24.1104 46.4631 24.2598 46.3585C24.4092 46.2539 24.5119 46.0952 24.546 45.916C24.5729 45.824 24.5807 45.7275 24.5688 45.6324C24.5569 45.5374 24.5256 45.4457 24.4769 45.3632C24.4281 45.2807 24.3629 45.2091 24.2854 45.1528C24.2078 45.0965 24.1196 45.0568 24.026 45.036" fill="#FBCC40"/>
</g>
<defs>
<clipPath id="clip0_117_1144">
<rect width="48" height="48" fill="white"/>
</clipPath>
</defs>
</svg>
