<svg width="48" height="48" viewBox="0 0 48 48" fill="none" xmlns="http://www.w3.org/2000/svg">
<g clip-path="url(#clip0_117_1176)">
<path fill-rule="evenodd" clip-rule="evenodd" d="M12.606 42.516C12.3948 42.0863 12.133 41.6835 11.826 41.316C11.2144 40.6988 10.4962 40.1974 9.70602 39.836C10.1884 39.6721 10.6296 39.4058 10.9996 39.0555C11.3695 38.7052 11.6593 38.2791 11.8493 37.8063C12.0392 37.3336 12.1247 36.8254 12.1 36.3165C12.0753 35.8076 11.9409 35.3101 11.706 34.858C11.2747 33.8513 10.5353 33.0072 9.59422 32.4469C8.6531 31.8867 7.55862 31.6392 6.46802 31.74C5.72894 31.8886 5.03262 32.2012 4.43035 32.6546C3.82808 33.1081 3.33521 33.6908 2.98802 34.36C2.61247 35.0599 2.45377 35.8557 2.53213 36.646C2.61049 37.4364 2.92236 38.1855 3.42802 38.798C3.84202 39.238 4.35802 39.576 4.92802 39.778C4.05265 40.1539 3.2632 40.7044 2.60802 41.396C2.30178 41.7636 2.04059 42.1664 1.83002 42.596C1.61975 43.042 1.46525 43.5122 1.37002 43.996C1.1431 45.026 1.04236 46.0797 1.07002 47.134C1.06234 47.3379 1.12914 47.5377 1.25795 47.6959C1.38677 47.8542 1.56879 47.9601 1.77002 47.994C1.87521 48.008 1.98212 48.0009 2.08454 47.9732C2.18696 47.9454 2.28284 47.8976 2.3666 47.8325C2.45036 47.7673 2.52032 47.6862 2.57241 47.5937C2.6245 47.5013 2.65768 47.3994 2.67002 47.294C3.08869 46.146 3.60869 45.046 4.23002 43.994L4.75002 42.974C4.93002 42.614 5.05002 42.254 5.25002 41.914C5.50736 41.4847 5.80736 41.0853 6.15002 40.716C6.24504 40.6493 6.32078 40.5587 6.36959 40.4533C6.4184 40.348 6.43855 40.2316 6.42802 40.116C6.88802 40.216 7.35469 40.2693 7.82802 40.276C7.82802 40.276 7.92802 40.276 7.98802 40.176C8.03061 40.3599 8.13688 40.5229 8.28802 40.636C8.62802 41.0053 8.92802 41.4053 9.18802 41.836C9.38802 42.176 9.50802 42.536 9.68802 42.896L10.208 43.916C10.8334 44.9787 11.3527 46.0913 11.766 47.254C11.7779 47.3607 11.8117 47.4639 11.8654 47.5569C11.919 47.65 11.9912 47.731 12.0776 47.7948C12.164 47.8587 12.2626 47.904 12.3673 47.9279C12.472 47.9519 12.5805 47.9539 12.686 47.934C12.9005 47.9042 13.0946 47.7907 13.2257 47.6183C13.3569 47.446 13.4145 47.2287 13.386 47.014C13.4073 45.9582 13.2998 44.9038 13.066 43.874C12.9677 43.4039 12.8132 42.9493 12.606 42.516ZM6.14802 38.414C5.71307 38.2359 5.34314 37.9288 5.08802 37.534C4.93281 37.2326 4.86905 36.8923 4.90458 36.5551C4.94011 36.2179 5.07339 35.8985 5.28802 35.636C5.46757 35.3308 5.7104 35.0675 6.00019 34.864C6.28997 34.6605 6.61998 34.5214 6.96802 34.456C7.51776 34.363 8.08283 34.4464 8.58223 34.6943C9.08164 34.9422 9.48973 35.3419 9.74802 35.836C10.628 37.436 9.14802 39.654 6.14802 38.414ZM29.08 42.516C28.8688 42.0863 28.607 41.6835 28.3 41.316C27.6884 40.6988 26.9702 40.1974 26.18 39.836C26.6707 39.6823 27.1221 39.4236 27.5026 39.0778C27.8832 38.732 28.1839 38.3075 28.3838 37.8337C28.5836 37.36 28.6779 36.8483 28.66 36.3344C28.6421 35.8205 28.5124 35.3167 28.28 34.858C27.8486 33.8509 27.1089 33.0066 26.1674 32.4463C25.2259 31.8861 24.1309 31.6388 23.04 31.74C22.2833 31.875 21.5675 32.1812 20.9474 32.6353C20.3272 33.0894 19.8191 33.6794 19.462 34.36C19.0973 35.0675 18.9519 35.8678 19.0446 36.6584C19.1372 37.449 19.4636 38.194 19.982 38.798C20.3968 39.2396 20.9111 39.5756 21.482 39.778C20.6066 40.1539 19.8172 40.7044 19.162 41.396C18.8551 41.7635 18.5932 42.1663 18.382 42.596C18.1778 43.0166 18.0234 43.4596 17.922 43.916C17.6951 44.946 17.5944 45.9997 17.622 47.054C17.5932 47.271 17.6503 47.4907 17.781 47.6663C17.9117 47.8418 18.1059 47.9594 18.322 47.994C18.4272 48.008 18.5341 48.0009 18.6365 47.9732C18.739 47.9454 18.8348 47.8976 18.9186 47.8325C19.0024 47.7673 19.0723 47.6862 19.1244 47.5937C19.1765 47.5013 19.2097 47.3994 19.222 47.294C19.6147 46.1516 20.11 45.0471 20.702 43.994L21.222 42.974C21.402 42.614 21.522 42.254 21.722 41.914C21.9807 41.4847 22.2807 41.0853 22.622 40.716C22.7174 40.6495 22.7935 40.559 22.8427 40.4537C22.8919 40.3483 22.9123 40.2318 22.902 40.116C23.362 40.216 23.8287 40.2693 24.302 40.276C24.302 40.276 24.402 40.276 24.46 40.176C24.5026 40.3599 24.6089 40.5229 24.76 40.636C25.1014 41.0053 25.4014 41.4053 25.66 41.836C25.86 42.176 25.98 42.536 26.16 42.896L26.68 43.916C27.3054 44.9787 27.8254 46.0913 28.24 47.254C28.252 47.3605 28.2857 47.4635 28.3392 47.5564C28.3927 47.6493 28.4648 47.7302 28.5509 47.794C28.637 47.8578 28.7354 47.9032 28.8399 47.9272C28.9443 47.9513 29.0526 47.9536 29.158 47.934C29.3726 47.9042 29.5666 47.7907 29.6977 47.6183C29.8289 47.446 29.8865 47.2287 29.858 47.014C29.8793 45.9582 29.7718 44.9038 29.538 43.874C29.4397 43.4039 29.2852 42.9473 29.078 42.514M22.618 38.414C22.1831 38.2359 21.8131 37.9288 21.558 37.534C21.4028 37.2326 21.3391 36.8923 21.3746 36.5551C21.4101 36.2179 21.5434 35.8985 21.758 35.636C21.9376 35.3308 22.1804 35.0675 22.4702 34.864C22.76 34.6605 23.09 34.5214 23.438 34.456C23.9878 34.363 24.5528 34.4464 25.0522 34.6943C25.5516 34.9422 25.9597 35.3419 26.218 35.836C27.098 37.456 25.618 39.634 22.618 38.414ZM45.552 42.516C45.3408 42.0863 45.079 41.6835 44.772 41.316C44.1963 40.7104 43.5195 40.2095 42.772 39.836C43.2544 39.6721 43.6956 39.4058 44.0656 39.0555C44.4355 38.7052 44.7253 38.2791 44.9153 37.8063C45.1052 37.3336 45.1907 36.8254 45.166 36.3165C45.1413 35.8076 45.0069 35.3101 44.772 34.858C44.3406 33.8509 43.6009 33.0066 42.6594 32.4463C41.7179 31.8861 40.6229 31.6388 39.532 31.74C38.7793 31.8781 38.0679 32.1858 37.4517 32.6397C36.8356 33.0937 36.3309 33.682 35.976 34.36C35.6005 35.0599 35.4418 35.8557 35.5201 36.646C35.5985 37.4364 35.9104 38.1855 36.416 38.798C36.8355 39.2339 37.3484 39.569 37.916 39.778C37.0335 40.1515 36.237 40.7022 35.576 41.396C35.2691 41.7635 35.0072 42.1663 34.796 42.596C34.5907 43.0173 34.4374 43.4573 34.336 43.916C34.0889 44.9435 33.968 45.9973 33.976 47.054C33.9472 47.271 34.0043 47.4907 34.135 47.6663C34.2657 47.8418 34.4599 47.9594 34.676 47.994C34.7812 48.008 34.8881 48.0009 34.9905 47.9732C35.093 47.9454 35.1888 47.8976 35.2726 47.8325C35.3564 47.7673 35.4263 47.6862 35.4784 47.5937C35.5305 47.5013 35.5637 47.3994 35.576 47.294C36.0072 46.1473 36.5427 45.0427 37.176 43.994L37.696 42.974C37.876 42.614 37.996 42.254 38.196 41.914C38.4534 41.4847 38.7527 41.0853 39.094 40.716C39.1894 40.6495 39.2655 40.559 39.3147 40.4537C39.3639 40.3483 39.3843 40.2318 39.374 40.116C39.8407 40.2173 40.314 40.2707 40.794 40.276L40.934 40.176C40.9693 40.363 41.0772 40.5283 41.234 40.636C41.574 41.0053 41.874 41.4053 42.134 41.836C42.334 42.176 42.454 42.536 42.634 42.896L43.154 43.916C43.778 44.9787 44.2974 46.0913 44.712 47.254C44.7239 47.3607 44.7577 47.4639 44.8114 47.5569C44.865 47.65 44.9372 47.731 45.0236 47.7948C45.11 47.8587 45.2086 47.904 45.3133 47.9279C45.418 47.9519 45.5265 47.9539 45.632 47.934C45.8465 47.9042 46.0406 47.7907 46.1717 47.6183C46.3029 47.446 46.3605 47.2287 46.332 47.014C46.3435 45.9432 46.2225 44.8751 45.972 43.834C45.8834 43.3793 45.7425 42.9383 45.552 42.516ZM39.112 38.414C38.6778 38.2355 38.3086 37.9284 38.054 37.534C37.8988 37.2326 37.835 36.8923 37.8706 36.5551C37.9061 36.2179 38.0394 35.8985 38.254 35.636C38.4336 35.3308 38.6764 35.0675 38.9662 34.864C39.256 34.6605 39.586 34.5214 39.934 34.456C40.4838 34.363 41.0488 34.4464 41.5482 34.6943C42.0476 34.9422 42.4557 35.3419 42.714 35.836C42.8617 36.0674 42.9539 36.3298 42.9834 36.6026C43.0128 36.8755 42.9788 37.1516 42.8839 37.4091C42.789 37.6667 42.6358 37.8988 42.4364 38.0874C42.2369 38.2759 41.9965 38.4158 41.734 38.496C41.174 38.716 41.734 38.796 40.794 38.796C40.2178 38.7567 39.6511 38.6286 39.114 38.416M32.476 13.468C32.2429 12.9432 31.9402 12.4521 31.576 12.008C30.7392 11.074 29.7275 10.313 28.598 9.768C29.2086 9.23572 29.6725 8.55585 29.9456 7.79328C30.2187 7.03071 30.2919 6.21087 30.158 5.412C30.0673 4.14514 29.577 2.93972 28.7575 1.96932C27.9381 0.998919 26.8318 0.313589 25.598 0.0120041C24.3713 -0.0643988 23.1465 0.188234 22.0502 0.743782C20.9539 1.29933 20.0258 2.13763 19.362 3.172C18.9842 3.68473 18.7174 4.27064 18.5788 4.89228C18.4402 5.51393 18.4328 6.15765 18.557 6.78234C18.6812 7.40702 18.9343 7.99893 19.3002 8.52025C19.6661 9.04157 20.1368 9.48084 20.682 9.81001H20.882C19.8652 10.5069 18.9324 11.3189 18.102 12.23C17.514 12.872 17.022 13.6 16.642 14.388C16.2489 15.1019 16.0054 15.8885 15.9263 16.6997C15.8472 17.5108 15.9342 18.3296 16.182 19.106C16.2382 19.3099 16.3728 19.4834 16.5564 19.5883C16.7401 19.6932 16.9578 19.7212 17.162 19.666C17.3712 19.6097 17.5495 19.473 17.6582 19.2856C17.7669 19.0982 17.797 18.8755 17.742 18.666C17.7266 18.1517 17.8436 17.642 18.082 17.186C18.342 16.6633 18.642 16.1633 18.982 15.686C19.302 15.186 19.662 14.686 19.982 14.146C20.762 12.948 21.382 11.728 21.982 10.808C21.982 10.808 21.982 10.648 22.102 10.548C22.75 10.768 23.422 10.922 24.102 11.008C24.1953 11.0238 24.2907 11.021 24.3829 10.9999C24.475 10.9788 24.5621 10.9397 24.6392 10.8849C24.7163 10.8301 24.7818 10.7607 24.8321 10.6806C24.8823 10.6005 24.9163 10.5112 24.932 10.418C24.9478 10.3248 24.945 10.2293 24.9239 10.1372C24.9028 10.045 24.8637 9.95788 24.8089 9.88081C24.7541 9.80374 24.6847 9.73821 24.6046 9.68797C24.5245 9.63773 24.4353 9.60376 24.342 9.58801C23.8554 9.47926 23.38 9.32526 22.922 9.12801C22.4991 8.94431 22.1076 8.69527 21.762 8.39001C21.3158 8.03955 20.9976 7.5518 20.8566 7.00225C20.7156 6.45269 20.7597 5.87198 20.982 5.35C21.2851 4.7058 21.7546 4.15415 22.342 3.752C23.1268 3.05705 24.1531 2.69796 25.2 2.752C25.9248 2.88576 26.587 3.25005 27.0879 3.79064C27.5888 4.33122 27.9018 5.01917 27.98 5.752C28.28 7.25201 27.86 8.85 26.1 8.99C25.983 8.97156 25.8633 8.97869 25.7493 9.01092C25.6353 9.04314 25.5296 9.09969 25.4396 9.17667C25.3495 9.25365 25.2772 9.34924 25.2276 9.45684C25.178 9.56445 25.1523 9.68152 25.1523 9.8C25.1523 9.91849 25.178 10.0356 25.2276 10.1432C25.2772 10.2508 25.3495 10.3464 25.4396 10.4233C25.5296 10.5003 25.6353 10.5569 25.7493 10.5891C25.8633 10.6213 25.983 10.6285 26.1 10.61C26.5167 10.5941 26.9284 10.5131 27.32 10.37C27.3251 10.4671 27.3509 10.562 27.3958 10.6482C27.4406 10.7345 27.5035 10.8101 27.58 10.87C28.314 11.652 28.926 12.542 29.398 13.508L29.998 14.668C30.752 16.014 31.292 17.472 31.598 18.986C31.6413 19.1853 31.7556 19.3621 31.9197 19.4833C32.0837 19.6045 32.2862 19.6619 32.4895 19.6448C32.6927 19.6276 32.8828 19.5371 33.0242 19.3902C33.1656 19.2432 33.2487 19.0498 33.258 18.846C33.3315 17.5801 33.2441 16.31 32.998 15.066C32.8916 14.5132 32.7169 13.9758 32.478 13.466" fill="#1E1E1F"/>
<path fill-rule="evenodd" clip-rule="evenodd" d="M29.538 24.424L25.538 26.942L25.238 27.182C25.378 26.322 25.518 25.442 25.598 24.562C25.63 24.122 25.63 23.682 25.598 23.242C25.63 22.802 25.63 22.3627 25.598 21.924C25.478 20.884 25.238 19.924 25.138 18.864C25.1551 18.7607 25.15 18.655 25.1232 18.5538C25.0964 18.4526 25.0484 18.3583 24.9825 18.277C24.9165 18.1957 24.834 18.1293 24.7405 18.0823C24.647 18.0352 24.5446 18.0085 24.44 18.004C24.2522 17.9929 24.0675 18.0558 23.9255 18.1791C23.7835 18.3025 23.6953 18.4765 23.68 18.664C23.3466 19.6883 23.099 20.7386 22.94 21.804C22.9091 22.2568 22.9091 22.7112 22.94 23.164C22.944 23.612 22.9773 24.0587 23.04 24.504C23.04 25.264 23.26 26.004 23.4 26.764C23.16 26.584 22.9 26.424 22.64 26.264C21.5 25.564 20.342 24.964 19.182 24.264C19.0335 24.15 18.8457 24.0996 18.6601 24.124C18.4744 24.1483 18.306 24.2455 18.192 24.394C18.0779 24.5425 18.0276 24.7303 18.0519 24.9159C18.0763 25.1016 18.1735 25.27 18.322 25.384L22.322 29.28C22.69 29.684 23.0833 30.064 23.502 30.42C23.7169 30.5953 23.9757 30.7085 24.2503 30.7473C24.5249 30.7861 24.8049 30.749 25.06 30.64C25.3898 30.4803 25.6933 30.2713 25.96 30.02C26.4 29.62 26.78 29.08 27.12 28.74L30.518 25.662C30.6049 25.5989 30.6782 25.5189 30.7335 25.4268C30.7889 25.3347 30.8251 25.2324 30.84 25.126C30.8549 25.0196 30.8483 24.9113 30.8204 24.8075C30.7926 24.7037 30.7442 24.6066 30.678 24.522C30.5385 24.36 30.3413 24.2589 30.1283 24.2403C29.9154 24.2216 29.7036 24.2888 29.538 24.424ZM13.746 25.002C12.926 25.422 12.126 25.842 11.366 26.302C10.806 26.6007 10.266 26.934 9.74598 27.302H9.62598C9.83265 26.454 10.086 25.6207 10.386 24.802C10.626 24.262 10.866 23.722 11.126 23.202C11.3873 22.7087 11.674 22.2293 11.986 21.764C12.6171 20.5486 13.496 19.4789 14.566 18.624C14.6849 18.5487 14.7799 18.4411 14.8398 18.3137C14.8998 18.1863 14.9221 18.0445 14.9042 17.9049C14.8864 17.7653 14.8291 17.6336 14.7391 17.5254C14.6491 17.4172 14.53 17.337 14.396 17.294C14.3042 17.2679 14.2081 17.2608 14.1135 17.2732C14.019 17.2856 13.9279 17.3172 13.846 17.366C12.2869 17.9752 10.9098 18.9736 9.84598 20.266C9.37888 20.8175 8.98866 21.4297 8.68598 22.086C8.38331 22.726 8.14998 23.392 7.98598 24.084C7.77049 24.9421 7.64316 25.82 7.60598 26.704L3.60998 23.504C3.54309 23.4369 3.46361 23.3836 3.37609 23.3473C3.28857 23.3109 3.19474 23.2922 3.09998 23.2922C3.00522 23.2922 2.91139 23.3109 2.82387 23.3473C2.73635 23.3836 2.65687 23.4369 2.58998 23.504C2.4649 23.6405 2.39551 23.8189 2.39551 24.004C2.39551 24.1891 2.4649 24.3675 2.58998 24.504L6.42998 29.202L7.50798 30.242C7.38798 30.382 7.94798 30.642 8.10798 30.722C8.32829 30.8416 8.57774 30.8971 8.82798 30.882C9.28962 30.8693 9.73907 30.731 10.128 30.482C10.6173 30.102 11.07 29.682 11.486 29.222C11.826 28.7967 12.186 28.39 12.566 28.002L14.566 26.342C14.7221 26.2131 14.825 26.0309 14.8548 25.8306C14.8846 25.6304 14.8393 25.4261 14.7276 25.2573C14.6158 25.0884 14.4456 24.9669 14.2496 24.916C14.0536 24.8652 13.8457 24.8887 13.666 24.982L13.746 25.002ZM46.67 23.464C46.6048 23.3975 46.527 23.3446 46.4412 23.3086C46.3553 23.2725 46.2631 23.2539 46.17 23.2539C46.0769 23.2539 45.9847 23.2725 45.8988 23.3086C45.813 23.3446 45.7352 23.3975 45.67 23.464L41.672 26.664C41.6249 25.781 41.4977 24.904 41.292 24.044C41.1237 23.3537 40.8824 22.6832 40.572 22.044C40.266 21.394 39.8833 20.783 39.432 20.224C38.3573 18.9454 36.9852 17.9503 35.436 17.326C35.2694 17.238 35.0752 17.2182 34.8942 17.2707C34.7133 17.3233 34.5599 17.4441 34.4665 17.6077C34.373 17.7713 34.3468 17.9648 34.3933 18.1473C34.4399 18.3299 34.5556 18.4872 34.716 18.586C35.8 19.436 36.692 20.506 37.336 21.726C37.616 22.224 37.896 22.724 38.156 23.244C38.416 23.764 38.656 24.304 38.894 24.844C39.134 25.384 39.394 26.504 39.634 27.342H39.534C38.994 26.982 38.474 26.642 37.914 26.342C37.354 26.042 36.334 25.462 35.514 25.042C35.4015 24.9718 35.2738 24.93 35.1416 24.92C35.0094 24.91 34.8768 24.9322 34.7551 24.9847C34.6334 25.0372 34.5262 25.1184 34.4428 25.2214C34.3594 25.3244 34.3021 25.4461 34.276 25.576C34.2461 25.7339 34.2644 25.8972 34.3286 26.0445C34.3928 26.1918 34.5 26.3164 34.636 26.402L36.636 28.062C37.056 28.422 37.456 28.822 37.856 29.222C38.2653 29.6873 38.718 30.1073 39.214 30.482C39.594 30.728 40.038 30.868 40.494 30.882C40.7443 30.8982 40.9941 30.8427 41.214 30.722C41.394 30.722 41.954 30.382 41.814 30.242L42.914 29.202L46.73 24.502C46.7992 24.4323 46.853 24.3487 46.8878 24.2568C46.9226 24.1649 46.9376 24.0667 46.9319 23.9686C46.9263 23.8705 46.9 23.7747 46.8549 23.6874C46.8098 23.6001 46.7468 23.5233 46.67 23.462" fill="#FBCD40"/>
</g>
<defs>
<clipPath id="clip0_117_1176">
<rect width="48" height="48" fill="white"/>
</clipPath>
</defs>
</svg>
