<svg width="48" height="48" viewBox="0 0 48 48" fill="none" xmlns="http://www.w3.org/2000/svg">
<g clip-path="url(#clip0_117_1156)">
<path fill-rule="evenodd" clip-rule="evenodd" d="M39.9601 31.25C38.266 29.1035 36.444 27.0611 34.5041 25.134L22.6521 11.442C21.9721 10.642 20.7521 9.18201 19.6121 8.02401C19.1163 7.54814 18.5666 7.13197 17.9741 6.78401C16.0287 6.12162 14.0189 5.66643 11.9781 5.42601C9.99735 5.08102 7.99239 4.89376 5.98206 4.86601C5.47577 4.83849 4.96835 4.83849 4.46206 4.86601C4.28158 4.9382 4.11811 5.04718 3.98206 5.18601C3.85049 5.30711 3.77124 5.47468 3.7611 5.65322C3.75096 5.83175 3.81073 6.00722 3.92775 6.14243C4.04476 6.27765 4.20983 6.362 4.38797 6.3776C4.56611 6.3932 4.74332 6.33883 4.88206 6.22601H6.20206C8.09527 6.28199 9.9805 6.49607 11.8381 6.86601C13.6701 7.11001 15.4721 7.54601 17.2161 8.16601C17.8561 8.58468 18.4287 9.08401 18.9341 9.66401C19.8741 10.664 20.7941 11.842 21.3741 12.522L32.8661 26.514C33.9661 28.014 35.9641 29.752 37.3421 31.65C38.1861 32.65 38.8121 33.814 39.1821 35.068C38.9501 35.4787 38.6834 35.8653 38.3821 36.228C36.3927 38.4309 34.1974 40.4387 31.8261 42.224C30.1354 43.7756 28.1415 44.9599 25.9701 45.702C25.296 45.604 24.6753 45.2796 24.2101 44.782C23.2381 43.8353 22.3321 42.8287 21.4921 41.762C18.7941 38.708 14.1001 33.49 10.2001 28.994C8.34006 26.894 6.68006 24.996 5.48206 23.456C4.98206 22.856 4.38206 22.136 3.86206 21.458C3.55846 21.0125 3.31628 20.5282 3.14206 20.018C2.87385 19.1787 2.74613 18.3009 2.76406 17.42C2.76406 15.96 2.98406 14.502 2.98406 13.124V10.44C3.00806 9.87601 3.07473 9.31668 3.18406 8.76201C3.18406 8.12201 3.74406 7.48201 3.60406 7.20201C3.55943 7.08439 3.48701 6.9793 3.39299 6.89572C3.29896 6.81214 3.1861 6.75254 3.06406 6.72201C2.92354 6.69582 2.77834 6.71457 2.64909 6.77561C2.51984 6.83664 2.41311 6.93686 2.34406 7.06201C2.1701 7.52 2.04931 7.99646 1.98406 8.48201C1.84273 9.10068 1.75606 9.72734 1.72406 10.362V13.1C1.58406 14.72 1.26406 16.458 1.32406 18.156C1.35206 18.942 1.48006 19.722 1.70406 20.476C1.92139 21.1053 2.21473 21.698 2.58406 22.254C3.12406 23.054 3.72406 23.814 4.24406 24.474C5.74206 26.472 8.00006 29.19 10.4001 32.068C13.8181 36.066 17.5741 40.522 19.8541 43.222C20.8889 44.6087 22.0756 45.8752 23.3921 46.998C24.1241 47.598 25.0261 47.946 25.9701 47.998C26.9186 47.8983 27.8336 47.591 28.6501 47.098C31.3522 45.5162 33.8894 43.6684 36.2241 41.582C37.8415 40.2254 39.3207 38.712 40.6401 37.064C41.1801 36.438 41.4741 35.634 41.4601 34.806C41.1959 33.5338 40.6865 32.3253 39.9601 31.248" fill="#1E1E1F"/>
<path fill-rule="evenodd" clip-rule="evenodd" d="M45.1581 26.654C43.5538 24.4525 41.8187 22.3494 39.9621 20.356C38.4021 18.478 35.7021 15.1 33.1061 11.982C31.3261 9.82201 29.5861 7.82401 28.4081 6.46601C27.7081 5.68601 26.4081 4.22601 25.3301 3.14601C24.8253 2.63215 24.2535 2.18881 23.6301 1.82801C22.0704 1.2759 20.4557 0.893686 18.8141 0.688011C16.4654 0.269197 14.0857 0.0484206 11.7001 0.0280106C11.1875 -0.0115748 10.6727 -0.0115748 10.1601 0.0280106C9.9246 0.0716249 9.70425 0.174917 9.52008 0.328011C9.40488 0.45764 9.34356 0.626387 9.34866 0.799735C9.35376 0.973083 9.42491 1.13793 9.54754 1.26056C9.67016 1.38319 9.83501 1.45433 10.0084 1.45943C10.1817 1.46453 10.3505 1.40321 10.4801 1.28801H11.8201C13.7078 1.38343 15.5854 1.62414 17.4361 2.00801C19.2509 2.27674 21.0331 2.7325 22.7541 3.36801C23.3728 3.78801 23.9194 4.28801 24.3941 4.86801C25.3341 5.86601 26.2321 7.04401 26.7921 7.72401C28.4521 9.72401 31.1681 13.022 33.7261 16.04C35.5861 18.2 37.3661 20.196 38.5061 21.476C39.6441 22.756 41.7421 24.596 43.2621 26.454C44.2318 27.5039 44.9493 28.7611 45.3601 30.13C45.3601 30.31 45.2001 30.55 44.9601 30.89C44.7201 31.23 44.4601 31.57 44.1601 31.95C44.054 32.0694 43.9997 32.226 44.0091 32.3854C44.0184 32.5448 44.0907 32.6939 44.2101 32.8C44.3294 32.9061 44.486 32.9604 44.6454 32.9511C44.8049 32.9417 44.954 32.8694 45.0601 32.75C45.5481 32.25 45.9748 31.7033 46.3401 31.11C46.5927 30.7556 46.713 30.3239 46.6801 29.89C46.3851 28.724 45.8671 27.6255 45.1581 26.654ZM9.06008 11.722C9.1311 11.6827 9.19341 11.6294 9.24322 11.5653C9.29304 11.5012 9.32933 11.4276 9.34989 11.3491C9.37046 11.2706 9.37488 11.1887 9.36288 11.1084C9.35088 11.0281 9.32271 10.9511 9.28008 10.882C9.19703 10.7479 9.06599 10.6505 8.91365 10.6096C8.7613 10.5688 8.5991 10.5875 8.46008 10.662C7.83666 10.9809 7.301 11.4479 6.90008 12.022C6.51723 12.6249 6.28409 13.3107 6.22008 14.022C6.10562 15.3954 6.52063 16.7606 7.38008 17.838C7.83013 18.433 8.41428 18.9134 9.08502 19.2401C9.75575 19.5668 10.4941 19.7305 11.2401 19.718C12.5847 19.6373 13.8422 19.0258 14.7361 18.018C15.175 17.521 15.5107 16.9416 15.7236 16.3136C15.9364 15.6856 16.0223 15.0215 15.9761 14.36C15.9464 13.7684 15.7856 13.1908 15.5055 12.6688C15.2253 12.1469 14.8327 11.6937 14.3561 11.342C13.8962 10.9897 13.3592 10.7516 12.7893 10.6473C12.2195 10.543 11.633 10.5754 11.0781 10.742C10.9016 10.7891 10.7506 10.9033 10.6572 11.0603C10.5638 11.2172 10.5354 11.4044 10.5781 11.582C10.6095 11.6714 10.6582 11.7537 10.7215 11.8242C10.7847 11.8947 10.8613 11.9521 10.9468 11.993C11.0322 12.0338 11.1249 12.0574 11.2195 12.0624C11.3141 12.0674 11.4088 12.0537 11.4981 12.022C11.85 11.9372 12.2176 11.9422 12.567 12.0366C12.9165 12.131 13.2367 12.3116 13.4981 12.562C13.7424 12.786 13.9324 13.0627 14.0537 13.3711C14.175 13.6796 14.2244 14.0116 14.1981 14.342C14.1161 15.11 13.7521 15.822 13.1781 16.34C12.6637 16.9107 11.9451 17.2556 11.1781 17.3C10.7717 17.3395 10.3617 17.2842 9.98032 17.1384C9.59893 16.9927 9.25655 16.7605 8.98008 16.46C8.36619 15.7921 8.01148 14.9266 7.98008 14.02C7.94323 13.5666 8.02598 13.1114 8.22008 12.7C8.4259 12.317 8.71252 11.9833 9.06008 11.722Z" fill="#FBCC40"/>
</g>
<defs>
<clipPath id="clip0_117_1156">
<rect width="48" height="48" fill="white"/>
</clipPath>
</defs>
</svg>
